<?xml version="1.0" standalone="no"?>
<!DOCTYPE svg PUBLIC "-//W3C//DTD SVG 20010904//EN"
 "http://www.w3.org/TR/2001/REC-SVG-20010904/DTD/svg10.dtd">
<svg version="1.0" xmlns="http://www.w3.org/2000/svg"
 width="1001.000000pt" height="1001.000000pt" viewBox="0 0 1001.000000 1001.000000"
 preserveAspectRatio="xMidYMid meet">
<metadata>
Created by potrace 1.11, written by Peter Selinger 2001-2013
</metadata>
<g transform="translate(0.000000,1001.000000) scale(0.100000,-0.100000)"
fill="#000000" stroke="none">
<path d="M4714 9059 c-3 -6 -2 -15 3 -20 5 -5 9 -1 9 11 0 23 -2 24 -12 9z"/>
<path d="M3835 8961 c-3 -5 -2 -12 3 -15 5 -3 9 1 9 9 0 17 -3 19 -12 6z"/>
<path d="M3835 8041 c-3 -5 -2 -12 3 -15 5 -3 9 1 9 9 0 17 -3 19 -12 6z"/>
<path d="M4550 7786 c0 -2 8 -10 18 -17 15 -13 16 -12 3 4 -13 16 -21 21 -21
13z"/>
<path d="M3656 7542 c-4 -4 -29 -8 -54 -9 -26 0 -47 -2 -47 -3 0 -2 -9 -4 -20
-5 -11 -1 -35 -5 -52 -8 -24 -4 -36 -1 -44 11 -10 16 -10 15 -5 0 4 -13 0 -18
-14 -19 -29 -2 -59 -6 -65 -9 -7 -3 -13 -5 -70 -15 -27 -5 -52 -9 -55 -10 -3
0 -23 -5 -45 -10 -47 -10 -54 -12 -57 -14 -2 -2 -14 -5 -28 -8 -39 -7 -55 -11
-55 -13 0 -1 -7 -3 -15 -5 -8 -2 -48 -14 -87 -28 -40 -14 -73 -22 -73 -19 0 4
-4 1 -8 -5 -4 -7 -19 -14 -32 -15 -14 -2 -27 -5 -30 -8 -9 -10 -65 -33 -74
-31 -5 1 -17 -6 -27 -15 -11 -9 -19 -14 -19 -11 0 4 -16 -3 -36 -14 -20 -11
-43 -18 -51 -15 -8 3 -11 1 -8 -4 3 -5 -12 -18 -35 -30 -22 -11 -40 -17 -40
-13 0 5 -4 3 -8 -3 -4 -6 -32 -24 -62 -40 -30 -16 -61 -35 -68 -41 -7 -7 -18
-13 -23 -13 -6 0 -17 -7 -26 -15 -8 -8 -19 -12 -25 -9 -7 4 -8 2 -4 -4 7 -11
-7 -17 -29 -12 -5 1 -7 -2 -3 -5 10 -10 -61 -57 -74 -49 -7 4 -8 2 -4 -5 4 -6
0 -14 -11 -18 -10 -4 -23 -13 -29 -21 -6 -8 -16 -12 -22 -8 -7 4 -12 1 -12 -6
0 -15 -124 -118 -141 -118 -6 0 -8 -3 -6 -7 3 -5 -1 -14 -9 -21 -8 -7 -14 -11
-14 -8 0 3 -20 -15 -44 -41 -28 -29 -48 -43 -57 -38 -7 5 -10 4 -5 -3 3 -6
-13 -31 -36 -55 -24 -25 -65 -70 -92 -100 -28 -31 -53 -54 -58 -51 -4 3 -5 -1
-2 -9 3 -9 -4 -22 -18 -31 -12 -9 -19 -16 -15 -16 6 0 -6 -18 -38 -54 -22 -25
-93 -123 -110 -153 -11 -18 -23 -33 -28 -33 -4 0 -5 -5 -2 -10 3 -6 -1 -13 -9
-16 -9 -3 -14 -10 -11 -14 3 -5 0 -14 -7 -22 -7 -7 -24 -33 -37 -58 -14 -25
-29 -48 -34 -51 -5 -3 -8 -9 -8 -13 0 -3 -23 -54 -51 -113 -28 -60 -53 -112
-54 -118 -1 -5 -11 -30 -22 -55 -11 -25 -26 -63 -32 -85 -7 -22 -17 -45 -22
-52 -5 -7 -7 -17 -3 -23 3 -5 1 -10 -4 -10 -6 0 -11 -10 -11 -23 0 -13 -3 -27
-7 -31 -5 -4 -8 -11 -9 -14 -1 -17 -18 -79 -26 -102 -6 -14 -12 -38 -15 -55
-5 -41 -11 -70 -13 -70 -1 0 -4 -16 -7 -35 -2 -19 -8 -36 -12 -38 -5 -1 -7
-16 -5 -33 2 -16 0 -28 -4 -25 -4 2 -7 -10 -7 -27 -1 -64 -17 -172 -28 -186
-9 -11 -9 -13 0 -8 9 6 11 -1 7 -25 -7 -46 -8 -217 -2 -224 9 -8 131 -11 156
-2 12 4 22 4 22 0 0 -4 209 -7 465 -7 256 0 465 4 465 8 0 5 6 5 12 1 19 -12
428 -11 428 1 0 6 3 6 8 0 8 -12 61 -13 79 -2 6 4 14 4 16 0 4 -7 402 -9 417
-3 3 1 10 1 15 0 34 -8 395 -4 395 5 0 7 3 7 8 0 8 -11 91 -13 108 -3 6 4 14
4 18 1 10 -10 256 -10 256 0 0 5 5 5 12 1 7 -5 8 -3 2 7 -12 19 -12 239 0 232
5 -4 6 -1 1 8 -13 20 -13 49 -1 49 7 0 7 3 1 8 -13 9 -15 183 -2 175 6 -4 7
-1 1 8 -12 20 -12 321 0 338 7 9 7 12 1 9 -7 -4 -10 59 -10 182 0 112 3 186 9
183 5 -4 6 0 1 8 -13 20 -13 49 -1 49 7 0 7 3 1 8 -13 9 -15 183 -2 175 6 -4
7 -1 2 8 -13 20 -13 162 -1 178 7 9 7 12 1 9 -7 -4 -10 59 -10 182 0 112 3
186 9 183 5 -4 6 0 1 8 -12 19 -13 239 -1 232 5 -4 6 -1 0 8 -12 20 -12 321 0
338 7 10 7 13 1 9 -7 -4 -10 34 -10 110 1 65 0 124 -2 132 -3 12 -19 14 -94
10 -50 -3 -96 -2 -103 2 -7 4 -16 4 -20 0z"/>
<path d="M4084 7452 c4 -3 14 -7 22 -8 9 -1 13 0 10 4 -4 3 -14 7 -22 8 -9 1
-13 0 -10 -4z"/>
<path d="M4445 7449 c-3 -4 2 -6 10 -5 21 3 28 13 10 13 -9 0 -18 -4 -20 -8z"/>
<path d="M7926 7268 c3 -5 10 -6 15 -3 13 9 11 12 -6 12 -8 0 -12 -4 -9 -9z"/>
<path d="M7919 7239 c-1 -5 -2 -15 -3 -21 0 -7 -9 -14 -20 -16 -10 -2 -16 0
-13 5 8 12 -166 13 -180 1 -7 -6 -13 -7 -13 -4 0 4 -9 2 -20 -4 -11 -6 -20
-18 -20 -26 0 -9 -5 -12 -12 -8 -9 5 -9 2 1 -9 7 -9 10 -17 5 -18 -5 0 -18 -3
-29 -5 -11 -3 -31 -6 -45 -7 -33 -2 -50 -19 -62 -64 -11 -40 -31 -66 -43 -55
-5 4 -5 1 -1 -6 5 -8 2 -18 -7 -25 -16 -12 -31 -77 -18 -77 3 0 14 -19 24 -41
14 -32 16 -48 8 -70 -5 -16 -7 -29 -4 -29 3 0 -1 -8 -8 -17 -12 -14 -12 -15 0
-9 10 7 12 3 6 -13 -4 -14 -2 -21 6 -21 7 0 10 -2 7 -5 -3 -3 10 -22 29 -43
19 -20 37 -48 40 -62 3 -14 11 -31 17 -39 9 -12 8 -13 -4 -6 -12 7 -13 6 -4
-6 7 -8 24 -36 40 -64 15 -27 38 -58 51 -68 13 -10 30 -25 38 -33 8 -9 15 -13
15 -9 0 4 7 -1 16 -9 8 -9 22 -16 30 -16 8 0 12 -4 9 -10 -9 -14 -34 -13 -49
3 -7 6 -38 34 -69 61 -31 27 -54 53 -50 59 3 5 1 7 -5 3 -6 -3 -17 1 -25 9 -9
8 -18 15 -22 15 -3 0 -20 13 -38 30 -18 16 -36 30 -40 30 -5 0 -6 4 -3 9 3 5
-2 8 -12 7 -9 0 -16 5 -15 11 2 7 0 12 -5 11 -13 -3 -47 16 -70 39 -13 13 -30
23 -38 23 -8 0 -12 5 -9 10 3 6 -2 10 -12 10 -15 0 -82 38 -118 68 -5 4 -25
14 -42 21 -18 7 -31 16 -29 20 3 4 -5 8 -17 8 -12 1 -23 7 -25 13 -2 5 -12 10
-23 10 -10 0 -19 5 -19 10 0 6 -9 10 -21 10 -11 0 -18 4 -14 9 3 6 -4 8 -15 6
-11 -2 -20 1 -20 6 0 6 -4 7 -10 4 -5 -3 -10 -3 -10 2 0 4 -29 19 -65 33 -47
17 -64 28 -60 38 5 13 3 13 -11 1 -14 -11 -18 -11 -30 6 -10 14 -14 15 -14 4
0 -8 -3 -10 -8 -4 -4 6 -11 11 -17 12 -5 1 -52 15 -104 32 -52 17 -107 34
-122 36 -16 3 -39 9 -52 14 -14 6 -28 7 -31 4 -3 -4 -6 -2 -6 3 0 5 -13 10
-28 11 -15 1 -41 5 -57 9 -17 4 -42 7 -58 8 -18 1 -26 5 -22 14 3 9 0 10 -15
2 -15 -8 -20 -8 -20 2 0 9 -3 9 -10 -2 -5 -8 -10 -10 -10 -4 0 5 -10 10 -22
11 -75 2 -114 10 -126 23 -10 13 -11 12 -5 -4 5 -14 3 -17 -6 -11 -7 4 -38 9
-70 10 -195 10 -203 9 -196 -25 2 -11 -1 -22 -6 -25 -5 -4 -6 -12 -2 -18 11
-18 11 -47 0 -47 -6 0 -5 -5 1 -12 13 -17 13 -30 -1 -47 -7 -9 -8 -12 -1 -8
12 7 12 -22 -1 -42 -6 -10 -4 -12 4 -6 10 6 11 3 2 -13 -8 -15 -8 -23 0 -28 8
-4 7 -9 -2 -15 -12 -7 -12 -9 0 -9 11 0 11 -3 1 -15 -10 -12 -10 -15 0 -15 9
0 10 -3 1 -13 -6 -8 -8 -17 -4 -21 11 -11 9 -146 -2 -146 -7 0 -7 -3 0 -8 14
-10 14 -62 1 -55 -6 3 -6 0 1 -7 10 -11 9 -16 -5 -27 -9 -8 -12 -12 -5 -9 15
8 27 -10 13 -19 -6 -4 -7 -12 -3 -18 11 -19 11 -47 -1 -47 -7 0 -7 -3 -1 -8
13 -10 14 -162 0 -154 -5 3 -4 -2 4 -11 11 -14 11 -17 0 -17 -9 0 -10 -3 -4
-8 14 -10 14 -122 0 -114 -5 3 -4 -2 4 -11 10 -13 10 -17 1 -17 -10 0 -10 -3
0 -15 10 -12 10 -15 -1 -15 -12 0 -12 -2 0 -9 9 -6 10 -11 2 -15 -6 -4 -8 -13
-4 -19 11 -18 10 -147 -2 -147 -7 0 -7 -3 0 -8 14 -10 15 -63 1 -55 -6 4 -6 0
1 -8 19 -23 -2 -38 -40 -30 -18 4 -38 6 -44 5 -7 -1 -19 -2 -26 -3 -16 -1 -39
-59 -26 -63 6 -2 11 -13 12 -25 0 -12 5 -19 9 -17 4 3 8 1 8 -4 0 -11 27 -40
76 -79 40 -32 51 -68 31 -100 -5 -7 -4 -13 1 -13 10 0 9 -30 -2 -48 -4 -7 -2
-12 5 -12 8 0 9 -3 0 -13 -6 -8 -8 -17 -4 -21 11 -11 9 -105 -2 -98 -5 3 -4
-2 4 -11 9 -12 10 -17 2 -17 -7 0 -9 -5 -4 -12 11 -19 10 -137 -2 -130 -5 3
-4 -2 4 -11 11 -14 11 -17 0 -17 -11 0 -11 -2 1 -10 12 -8 12 -10 1 -10 -11 0
-11 -3 -1 -15 10 -12 10 -15 -1 -15 -10 0 -11 -2 -2 -8 8 -5 9 -13 3 -22 -5
-9 -5 -19 2 -27 8 -10 7 -13 -3 -13 -9 0 -10 -3 -4 -8 14 -10 15 -83 1 -75 -8
5 -8 3 0 -8 12 -16 12 -48 1 -66 -4 -6 -2 -15 4 -19 8 -4 7 -9 -2 -15 -11 -7
-11 -9 1 -9 13 0 13 -1 0 -10 -8 -5 -10 -10 -4 -10 12 0 13 -38 1 -57 -4 -6
-2 -15 4 -19 8 -4 7 -9 -2 -15 -8 -5 -9 -9 -3 -9 12 0 13 -45 1 -56 -4 -4 -2
-13 4 -21 6 -7 8 -13 3 -14 -81 -7 -153 -5 -147 3 4 7 1 8 -8 2 -19 -12 -1039
-12 -1032 0 4 5 0 6 -8 0 -21 -13 -240 -13 -232 0 5 8 3 8 -8 0 -8 -6 -64 -10
-141 -10 -127 1 -128 1 -128 -21 0 -16 39 -63 130 -154 73 -73 127 -135 124
-141 -4 -6 -2 -8 4 -4 14 8 444 -422 435 -437 -3 -6 -1 -7 5 -3 12 7 72 -46
72 -64 0 -6 3 -9 8 -7 9 5 42 -30 34 -37 -3 -3 0 -6 5 -6 6 0 280 -268 608
-595 l596 -595 37 37 c134 137 299 358 405 543 38 65 147 288 147 300 0 6 5
10 11 10 5 0 8 4 4 9 -3 5 -1 12 4 15 5 3 12 22 15 41 4 19 11 35 17 35 6 0 8
4 5 8 -3 5 1 21 9 36 8 15 14 30 13 34 -1 4 3 17 10 29 7 12 11 26 10 30 -4
16 14 73 22 68 4 -3 6 5 2 17 -3 11 -1 19 4 16 5 -4 10 6 10 20 2 25 10 67 14
67 1 0 3 9 4 20 2 11 8 45 15 75 23 109 34 178 33 203 0 9 2 16 6 13 4 -2 7
25 7 60 -1 36 2 70 6 76 9 14 129 17 129 3 0 -7 3 -7 8 0 4 6 42 10 85 10 l77
0 2 -35 c2 -47 3 -53 9 -65 3 -5 7 -62 9 -125 1 -63 3 -131 4 -152 0 -20 5
-34 9 -31 4 2 8 -10 8 -29 -1 -66 5 -123 12 -136 5 -6 5 -17 2 -22 -3 -6 -2
-10 3 -10 6 0 9 -6 9 -12 -3 -26 15 -113 25 -126 6 -7 13 -54 16 -103 4 -80 8
-96 34 -135 16 -24 31 -54 33 -66 3 -13 8 -38 11 -56 3 -17 19 -50 34 -71 16
-21 38 -58 51 -82 12 -24 24 -46 28 -49 3 -3 15 -23 26 -45 11 -22 22 -42 26
-45 3 -3 20 -32 38 -65 18 -33 43 -78 56 -100 14 -23 22 -51 20 -65 -4 -28
-13 -65 -15 -65 -1 0 -3 -13 -5 -30 -2 -16 -7 -41 -10 -55 -4 -14 -8 -53 -10
-87 -2 -34 -8 -70 -13 -80 -9 -19 -9 -60 1 -69 3 -3 -1 -20 -8 -37 -9 -22 -10
-37 -3 -50 5 -10 6 -32 2 -50 -10 -40 -9 -39 -17 -57 -7 -17 -5 -39 5 -56 4
-6 5 -24 2 -39 -18 -99 -9 -215 16 -200 4 3 15 -1 23 -9 8 -8 17 -12 20 -9 10
9 57 -26 57 -43 0 -8 12 -26 28 -39 23 -20 37 -23 102 -23 44 0 78 5 82 12 5
8 8 7 8 -2 0 -7 4 -10 10 -7 5 3 33 8 62 11 28 3 54 5 57 6 22 2 41 -3 37 -10
-6 -10 107 -7 149 4 17 4 40 8 52 8 11 1 20 3 18 7 -2 3 12 13 31 24 19 10 34
24 34 32 0 7 4 13 8 13 9 0 8 32 -4 100 -11 68 -7 103 15 141 11 19 29 62 39
95 22 70 19 79 -40 145 -10 10 -18 22 -18 26 0 4 -20 26 -45 50 -39 36 -84
106 -129 200 -6 13 -14 23 -18 23 -5 0 -8 5 -8 10 0 6 -15 35 -34 63 -69 110
-78 143 -57 223 10 39 25 185 22 214 -4 41 1 66 20 108 20 45 23 74 30 252 1
36 8 84 14 108 7 23 11 42 9 42 -2 0 1 12 6 26 6 14 12 40 14 57 4 28 14 81
31 157 3 14 7 48 10 75 3 28 9 64 14 80 5 17 12 73 15 125 9 150 21 194 53
202 10 2 78 3 151 2 72 -1 133 3 133 7 5 39 2 162 -4 166 -4 2 -2 13 3 24 6
10 7 19 3 19 -4 0 -9 26 -11 58 -1 31 -5 73 -8 92 -11 66 -9 76 25 117 18 23
32 42 31 44 -1 2 4 20 11 39 14 35 15 77 4 160 -3 25 -7 61 -8 80 -2 19 -7 41
-11 49 -7 10 -5 12 4 6 10 -6 11 -4 4 6 -5 8 -10 25 -11 39 -9 106 -12 135
-13 135 -2 0 -10 62 -13 102 -1 17 -5 29 -8 27 -6 -3 -8 11 -12 76 -1 17 -5
30 -8 30 -4 0 -9 9 -12 20 -3 12 -1 18 5 14 7 -4 7 0 0 12 -6 11 -10 22 -11
27 -1 4 -2 8 -2 10 -1 1 -2 16 -3 32 -1 17 -5 35 -8 40 -3 6 -5 29 -5 52 1 22
-1 39 -5 36 -5 -2 -8 13 -9 34 -2 104 -6 125 -32 183 -6 14 -10 28 -9 33 1 4
-5 7 -13 7 -8 0 -15 4 -15 8 0 5 -12 14 -26 20 -14 7 -23 16 -20 21 4 5 -3 7
-14 4 -12 -3 -22 1 -26 11 -3 9 -12 16 -18 16 -16 0 -58 44 -51 53 3 4 2 5 -1
2 -8 -6 -64 27 -64 37 0 4 -6 8 -14 8 -16 0 -29 27 -20 41 3 5 1 9 -3 9 -9 0
-37 59 -34 72 0 4 -6 5 -14 2 -16 -6 -24 8 -29 48 -1 13 -5 29 -9 34 -8 13 40
80 54 76 6 -1 8 2 4 7 -3 6 2 25 12 43 9 18 18 42 20 53 2 11 5 33 7 49 3 16
11 33 18 37 7 4 9 11 6 15 -6 5 35 133 51 159 9 13 6 65 -4 90 -5 11 -18 29
-30 40 -12 11 -27 34 -34 52 -7 17 -19 34 -28 37 -8 3 -12 10 -8 15 3 5 0 13
-6 17 -8 4 -9 3 -5 -4 12 -20 -13 -13 -34 8 -12 12 -18 25 -15 30 4 6 2 10 -3
10 -5 0 -14 11 -20 24 -23 50 -63 83 -112 92 -51 10 -70 10 -71 3z m58 -5156
c18 -39 60 -86 72 -79 26 17 32 -158 7 -231 -4 -13 -12 -23 -18 -23 -5 0 -7 7
-4 16 3 8 2 13 -2 10 -5 -3 -21 6 -37 20 -15 13 -31 24 -35 24 -15 0 -60 77
-60 101 0 14 11 53 25 87 14 34 25 71 25 82 0 28 13 25 27 -7z"/>
<path d="M7533 7155 c0 -8 4 -12 9 -9 5 3 6 10 3 15 -9 13 -12 11 -12 -6z"/>
<path d="M4550 7146 c0 -2 8 -10 18 -17 15 -13 16 -12 3 4 -13 16 -21 21 -21
13z"/>
<path d="M5800 7130 c-9 -6 -10 -10 -3 -10 6 0 15 5 18 10 8 12 4 12 -15 0z"/>
<path d="M5915 7131 c-3 -5 -2 -12 3 -15 5 -3 9 1 9 9 0 17 -3 19 -12 6z"/>
<path d="M6713 7075 c0 -8 4 -12 9 -9 5 3 6 10 3 15 -9 13 -12 11 -12 -6z"/>
<path d="M4229 6813 c-13 -16 -12 -17 4 -4 16 13 21 21 13 21 -2 0 -10 -8 -17
-17z"/>
<path d="M7159 6763 c-13 -16 -12 -17 4 -4 9 7 17 15 17 17 0 8 -8 3 -21 -13z"/>
<path d="M5730 6650 c0 -5 5 -10 11 -10 5 0 7 5 4 10 -3 6 -8 10 -11 10 -2 0
-4 -4 -4 -10z"/>
<path d="M8869 6493 c-13 -16 -12 -17 4 -4 9 7 17 15 17 17 0 8 -8 3 -21 -13z"/>
<path d="M4096 6492 c-3 -5 1 -9 9 -9 8 0 12 4 9 9 -3 4 -7 8 -9 8 -2 0 -6 -4
-9 -8z"/>
<path d="M9180 6496 c0 -2 8 -10 18 -17 15 -13 16 -12 3 4 -13 16 -21 21 -21
13z"/>
<path d="M9273 6435 c0 -8 4 -12 9 -9 5 3 6 10 3 15 -9 13 -12 11 -12 -6z"/>
<path d="M4144 6412 c4 -3 14 -7 22 -8 9 -1 13 0 10 4 -4 3 -14 7 -22 8 -9 1
-13 0 -10 -4z"/>
<path d="M1353 6255 c0 -8 4 -12 9 -9 5 3 6 10 3 15 -9 13 -12 11 -12 -6z"/>
<path d="M5404 6172 c4 -3 14 -7 22 -8 9 -1 13 0 10 4 -4 3 -14 7 -22 8 -9 1
-13 0 -10 -4z"/>
<path d="M5735 6130 c-3 -5 -1 -10 4 -10 6 0 11 5 11 10 0 6 -2 10 -4 10 -3 0
-8 -4 -11 -10z"/>
<path d="M8416 6088 c3 -5 10 -6 15 -3 13 9 11 12 -6 12 -8 0 -12 -4 -9 -9z"/>
<path d="M5735 5890 c-3 -5 -1 -10 4 -10 6 0 11 5 11 10 0 6 -2 10 -4 10 -3 0
-8 -4 -11 -10z"/>
<path d="M633 5595 c0 -8 4 -12 9 -9 5 3 6 10 3 15 -9 13 -12 11 -12 -6z"/>
<path d="M4056 5208 c3 -5 10 -6 15 -3 13 9 11 12 -6 12 -8 0 -12 -4 -9 -9z"/>
<path d="M5733 5125 c0 -8 4 -12 9 -9 5 3 6 10 3 15 -9 13 -12 11 -12 -6z"/>
<path d="M5726 4872 c-3 -5 1 -9 9 -9 8 0 12 4 9 9 -3 4 -7 8 -9 8 -2 0 -6 -4
-9 -8z"/>
<path d="M5730 4789 c0 -5 5 -7 10 -4 6 3 10 8 10 11 0 2 -4 4 -10 4 -5 0 -10
-5 -10 -11z"/>
<path d="M1453 4613 c4 -6 -76 -10 -215 -10 -150 -1 -223 -5 -228 -13 -4 -6
-6 -30 -4 -53 2 -23 5 -91 8 -152 4 -60 8 -121 10 -135 3 -14 8 -47 11 -75 12
-85 13 -89 19 -125 9 -57 23 -95 32 -93 98 17 118 21 204 43 41 10 91 22 110
25 19 3 60 12 90 20 30 8 66 16 80 19 14 2 66 14 115 26 50 12 104 24 120 26
17 3 44 9 60 14 17 5 41 11 55 14 14 3 36 8 50 11 14 3 39 8 55 11 17 3 47 10
68 15 20 5 42 7 47 4 6 -3 10 -2 10 3 0 4 30 15 68 22 84 18 82 17 85 20 1 1
11 4 22 5 30 4 66 12 110 23 55 15 97 24 118 25 9 1 17 4 17 7 0 3 8 6 18 7
44 4 79 10 88 15 5 3 36 12 69 19 33 7 65 14 70 15 16 4 45 11 120 28 121 27
129 29 157 30 14 0 24 4 23 7 -3 5 95 28 145 34 8 1 22 5 30 8 15 5 95 24 135
31 11 1 27 6 35 9 8 3 42 11 75 18 78 15 77 15 95 22 8 4 33 9 55 11 22 3 41
5 43 7 1 1 7 3 12 4 6 1 11 3 13 4 1 2 13 4 27 7 76 12 85 20 49 42 -15 10
-19 10 -14 1 6 -9 1 -11 -18 -7 -15 3 -28 0 -31 -6 -3 -8 -5 -8 -5 0 -1 7 -14
10 -33 8 -18 -2 -35 1 -40 8 -4 7 -8 8 -8 3 0 -6 -11 -12 -26 -13 -18 -1 -23
2 -18 11 6 9 4 9 -7 1 -19 -16 -419 -15 -419 0 0 8 -3 7 -8 0 -10 -15 -464
-15 -474 0 -5 7 -8 7 -8 1 0 -6 -11 -12 -26 -13 -17 -1 -23 2 -18 10 5 8 3 8
-7 2 -16 -10 -960 -14 -954 -4 2 4 -2 7 -10 7 -8 0 -12 -4 -10 -7 7 -11 -217
-7 -234 4 -9 6 -12 5 -8 -1z"/>
<path d="M5730 4589 c0 -5 5 -7 10 -4 6 3 10 8 10 11 0 2 -4 4 -10 4 -5 0 -10
-5 -10 -11z"/>
<path d="M3839 4536 c-3 -3 -20 -8 -39 -11 -19 -3 -51 -10 -70 -15 -19 -5 -48
-12 -65 -14 -55 -10 -75 -15 -83 -19 -4 -3 -25 -8 -47 -11 -22 -4 -62 -13 -90
-20 -46 -13 -75 -20 -145 -31 -14 -2 -36 -8 -50 -13 -14 -5 -35 -8 -47 -7 -12
1 -20 -2 -17 -7 3 -4 -6 -9 -20 -9 -14 -1 -29 -2 -33 -4 -64 -17 -111 -27
-144 -30 -14 -1 -32 -5 -39 -10 -7 -4 -25 -10 -39 -12 -14 -2 -33 -5 -41 -7
-9 -1 -20 -5 -25 -8 -6 -3 -22 -5 -37 -4 -14 1 -24 -3 -21 -8 4 -5 -1 -7 -10
-3 -10 3 -17 3 -17 -2 0 -4 -6 -8 -12 -8 -7 0 -37 -5 -66 -12 -29 -8 -55 -11
-58 -8 -3 3 -17 -1 -32 -9 -19 -10 -29 -10 -40 -2 -10 9 -12 8 -10 -2 2 -9 -6
-15 -22 -16 -14 0 -33 -4 -42 -8 -40 -14 -48 -15 -48 -3 0 9 -2 9 -8 0 -7 -12
-36 -21 -82 -27 -14 -2 -32 -6 -40 -9 -29 -10 -113 -30 -126 -30 -8 0 -14 -3
-14 -6 0 -3 -10 -6 -22 -7 -22 -1 -73 -11 -73 -14 0 -1 -11 -3 -25 -6 -21 -3
-60 -13 -80 -19 -3 -1 -23 -5 -45 -9 -22 -4 -53 -12 -70 -17 -16 -4 -43 -11
-60 -14 -16 -2 -45 -9 -62 -14 -18 -5 -33 -8 -33 -6 0 3 -11 0 -25 -5 -26 -10
-60 -18 -106 -25 -14 -2 -53 -10 -85 -19 -32 -8 -70 -17 -84 -20 -14 -2 -56
-12 -95 -21 -38 -9 -79 -18 -90 -20 -44 -9 -110 -28 -118 -35 -9 -7 52 -232
95 -350 40 -112 125 -303 160 -363 15 -26 28 -52 28 -57 0 -14 22 -6 95 36 39
23 90 52 115 65 25 13 47 27 48 32 2 4 7 7 12 7 4 0 51 25 105 55 53 30 101
55 106 55 5 0 9 5 9 10 0 6 4 10 10 10 10 0 355 194 378 212 6 6 12 7 12 3 0
-5 8 -1 18 7 9 8 49 32 87 53 39 21 86 47 105 58 158 90 261 147 266 147 3 0
19 9 35 21 16 11 34 17 40 13 7 -4 9 -3 6 3 -3 5 20 23 51 39 31 16 62 35 70
41 7 7 24 16 38 19 13 3 24 10 24 14 0 4 8 10 18 13 9 4 37 18 62 32 83 48
105 59 113 57 4 -1 7 2 7 8 0 5 7 10 15 10 8 0 15 4 15 9 0 5 8 11 18 15 9 3
49 24 87 46 39 22 77 43 85 47 8 3 17 9 20 12 14 16 128 70 135 63 5 -4 5 -1
1 6 -6 11 0 14 20 11 4 0 10 3 13 8 12 17 69 53 85 53 9 0 16 5 16 10 0 6 5
10 11 10 6 0 23 9 39 20 15 11 29 17 32 14 3 -2 11 2 18 11 7 8 18 15 24 15 6
0 17 9 24 20 10 16 10 20 -1 20 -8 0 -16 -2 -18 -4z"/>
<path d="M3889 4494 c-2 -6 -29 -24 -59 -41 -30 -16 -72 -40 -92 -51 -21 -12
-46 -19 -55 -16 -13 4 -14 3 -6 -3 16 -11 -132 -97 -149 -87 -6 4 -8 3 -5 -3
6 -10 -91 -70 -105 -65 -5 1 -8 -2 -8 -7 0 -5 -10 -13 -22 -17 -13 -3 -30 -12
-38 -19 -8 -6 -44 -27 -80 -46 -36 -19 -67 -37 -70 -40 -7 -8 -44 -22 -52 -21
-5 1 -8 -3 -8 -8 0 -6 -12 -16 -27 -23 -16 -6 -61 -31 -101 -54 -40 -24 -76
-43 -80 -43 -5 0 -23 -11 -42 -25 -18 -13 -37 -22 -41 -19 -5 3 -9 1 -9 -4 0
-5 -21 -20 -47 -33 -27 -13 -51 -28 -55 -34 -5 -7 -8 -7 -8 0 0 6 -3 6 -8 -1
-4 -6 -32 -24 -62 -41 -30 -17 -73 -41 -95 -53 -68 -39 -116 -65 -254 -144
-73 -42 -135 -76 -136 -76 -1 0 -51 -28 -111 -62 -60 -35 -123 -70 -139 -78
-17 -8 -32 -18 -35 -21 -3 -3 -40 -24 -83 -48 -43 -23 -150 -82 -237 -132
-174 -98 -169 -92 -120 -153 8 -10 14 -21 14 -25 -1 -3 31 -55 71 -116 78
-120 198 -273 291 -374 l59 -63 1011 1009 c810 810 1009 1014 1004 1029 -4 10
-9 14 -11 8z"/>
<path d="M3938 4330 c-26 -28 -49 -50 -50 -50 -2 0 -76 -70 -163 -156 -88 -86
-194 -189 -236 -230 -42 -41 -79 -71 -82 -67 -4 3 -7 1 -7 -5 0 -10 -53 -66
-137 -144 -10 -9 -23 -23 -29 -30 -6 -7 -100 -98 -209 -203 -109 -104 -226
-217 -260 -250 -34 -33 -155 -150 -269 -260 -214 -206 -277 -266 -459 -443
-76 -73 -107 -110 -107 -127 0 -16 28 -50 97 -115 97 -91 314 -262 360 -283
12 -5 23 -14 23 -19 0 -4 4 -8 9 -8 6 0 31 -14 56 -31 61 -41 350 -189 370
-189 8 0 15 -4 15 -10 0 -5 9 -10 19 -10 11 0 22 -4 25 -8 3 -4 28 -14 55 -22
28 -7 51 -16 51 -20 0 -3 9 -6 20 -7 11 -1 46 -11 78 -22 100 -34 210 -62 302
-77 19 -3 49 -9 65 -14 17 -4 37 -8 45 -9 8 0 29 -2 45 -5 17 -2 66 -7 110
-11 44 -3 98 -8 120 -11 44 -6 46 -6 95 -5 19 1 42 0 50 0 8 0 35 0 60 0 25 0
52 1 60 0 8 0 38 2 65 5 28 2 82 8 120 11 39 4 81 8 95 10 39 5 102 16 135 22
17 3 37 6 45 7 9 1 21 6 28 10 7 4 16 6 18 3 3 -3 36 3 72 14 37 11 76 21 87
23 11 3 40 11 64 20 24 9 47 14 51 11 5 -3 10 -2 12 3 1 4 32 18 68 31 36 12
80 29 99 38 18 8 39 16 45 17 6 1 17 5 24 9 6 5 12 5 12 0 0 -4 4 -3 8 3 4 5
52 32 107 59 55 27 124 64 153 82 29 18 55 33 57 33 13 0 264 176 330 231 131
110 221 199 228 228 5 21 -44 74 -405 435 -225 226 -421 424 -434 439 -13 16
-24 25 -24 21 0 -4 -6 1 -14 11 -8 11 -12 24 -9 29 4 5 2 6 -4 3 -5 -3 -25 10
-44 29 -19 20 -42 43 -53 52 -10 9 -37 37 -60 61 -22 24 -85 87 -139 140 -54
53 -126 125 -160 160 -34 35 -89 89 -121 120 -32 31 -68 67 -80 80 -12 13 -40
42 -63 64 -23 23 -39 45 -36 51 3 5 2 6 -3 3 -6 -3 -84 68 -174 159 -90 90
-166 164 -169 164 -3 -1 -27 -23 -53 -50z"/>
<path d="M7125 3609 c-3 -4 2 -6 10 -5 21 3 28 13 10 13 -9 0 -18 -4 -20 -8z"/>
<path d="M7593 1685 c0 -8 4 -12 9 -9 5 3 6 10 3 15 -9 13 -12 11 -12 -6z"/>
<path d="M500 1653 c-42 -7 -93 -24 -147 -50 -28 -13 -65 -25 -82 -26 -17 -1
-31 -4 -31 -7 0 -3 -19 -6 -43 -6 -93 -3 -90 -2 -84 -31 26 -140 56 -178 146
-189 20 -3 46 -7 59 -9 12 -3 32 -7 45 -9 54 -11 132 -17 262 -21 168 -5 191
2 188 56 -2 40 -23 79 -100 189 -29 41 -53 80 -53 86 0 7 -6 14 -12 16 -17 6
-117 7 -148 1z"/>
<path d="M9364 1533 c-16 -20 -35 -46 -42 -57 -7 -12 -11 -14 -9 -5 3 9 1 22
-4 30 -6 10 -9 4 -9 -19 0 -30 -2 -32 -21 -22 -11 7 -23 9 -26 6 -3 -3 6 -10
19 -17 24 -10 25 -12 12 -50 -20 -57 -10 -71 57 -83 41 -7 102 -56 169 -135
25 -30 26 -51 2 -51 -10 0 -22 -3 -26 -7 -3 -4 -21 -8 -39 -10 -17 -1 -43 -4
-57 -7 -14 -2 -35 -5 -48 -5 -21 -1 -22 -4 -17 -45 3 -25 10 -58 17 -73 12
-27 42 -64 53 -63 21 1 26 -1 22 -8 -3 -4 9 -7 26 -6 18 0 37 -2 42 -5 6 -3
21 -6 35 -7 14 -1 25 -2 25 -4 0 -1 24 -4 54 -5 31 -2 57 -9 62 -17 6 -9 9 -9
9 -1 0 8 12 11 38 7 34 -4 136 -7 190 -5 12 1 31 10 42 21 27 27 15 58 -72
190 -77 116 -89 123 -177 108 -24 -5 -46 -6 -49 -3 -2 2 21 29 53 59 38 38 71
59 99 67 22 6 48 14 56 18 20 10 24 54 9 83 -7 14 -8 23 -2 25 6 2 19 11 29
19 17 14 17 15 2 10 -10 -3 -24 -9 -32 -12 -10 -4 -13 2 -10 23 2 16 1 20 -2
9 -6 -17 -10 -15 -40 20 -19 21 -34 42 -34 46 0 5 -3 8 -8 8 -4 0 -8 -20 -8
-45 -1 -24 -11 -62 -22 -84 -18 -34 -91 -140 -122 -178 -5 -7 -10 -19 -10 -28
0 -8 -4 -15 -10 -15 -5 0 -10 -10 -11 -22 -1 -18 -4 -15 -16 15 -9 20 -20 37
-24 37 -5 0 -9 5 -9 11 0 6 -21 41 -48 78 -83 116 -86 122 -87 183 0 32 -1 58
-1 58 -1 0 -15 -17 -30 -37z"/>
<path d="M1560 1337 c-20 -17 -40 -53 -41 -74 0 -12 -6 -7 -16 14 -18 37 -48
47 -91 32 -41 -14 -47 -51 -15 -90 14 -16 29 -29 34 -29 10 0 49 -32 49 -40 0
-3 -10 -6 -22 -6 -110 -3 -258 -36 -258 -58 0 -56 419 -82 642 -41 141 26 82
76 -107 91 -33 3 -61 7 -64 9 -2 2 11 16 29 31 39 33 54 68 40 95 -14 26 -38
24 -82 -6 -47 -32 -63 -32 -45 -2 8 12 13 29 12 37 -1 8 -3 23 -3 33 -2 20
-39 23 -62 4z"/>
<path d="M156 1283 c-6 -14 -5 -15 5 -6 7 7 10 15 7 18 -3 3 -9 -2 -12 -12z"/>
</g>
</svg>
